<svg aria-roledescription="classDiagram" role="graphics-document document" viewBox="0 0 861.75 419" style="max-width: 861.75px;" xmlns="http://www.w3.org/2000/svg" width="861.75" id="svg" xmlns:xlink="http://www.w3.org/1999/xlink" height="419"><style>#svg{font-family:"trebuchet ms",verdana,arial,sans-serif;font-size:16px;fill:#333;}#svg .error-icon{fill:#552222;}#svg .error-text{fill:#552222;stroke:#552222;}#svg .edge-thickness-normal{stroke-width:2px;}#svg .edge-thickness-thick{stroke-width:3.5px;}#svg .edge-pattern-solid{stroke-dasharray:0;}#svg .edge-pattern-dashed{stroke-dasharray:3;}#svg .edge-pattern-dotted{stroke-dasharray:2;}#svg .marker{fill:#333333;stroke:#333333;}#svg .marker.cross{stroke:#333333;}#svg svg{font-family:"trebuchet ms",verdana,arial,sans-serif;font-size:16px;}#svg g.classGroup text{fill:#9370DB;stroke:none;font-family:"trebuchet ms",verdana,arial,sans-serif;font-size:10px;}#svg g.classGroup text .title{font-weight:bolder;}#svg .nodeLabel,#svg .edgeLabel{color:#131300;}#svg .edgeLabel .label rect{fill:#ECECFF;}#svg .label text{fill:#131300;}#svg .edgeLabel .label span{background:#ECECFF;}#svg .classTitle{font-weight:bolder;}#svg .node rect,#svg .node circle,#svg .node ellipse,#svg .node polygon,#svg .node path{fill:#ECECFF;stroke:#9370DB;stroke-width:1px;}#svg .divider{stroke:#9370DB;stroke-width:1;}#svg g.clickable{cursor:pointer;}#svg g.classGroup rect{fill:#ECECFF;stroke:#9370DB;}#svg g.classGroup line{stroke:#9370DB;stroke-width:1;}#svg .classLabel .box{stroke:none;stroke-width:0;fill:#ECECFF;opacity:0.5;}#svg .classLabel .label{fill:#9370DB;font-size:10px;}#svg .relation{stroke:#333333;stroke-width:1;fill:none;}#svg .dashed-line{stroke-dasharray:3;}#svg .dotted-line{stroke-dasharray:1 2;}#svg #compositionStart,#svg .composition{fill:#333333!important;stroke:#333333!important;stroke-width:1;}#svg #compositionEnd,#svg .composition{fill:#333333!important;stroke:#333333!important;stroke-width:1;}#svg #dependencyStart,#svg .dependency{fill:#333333!important;stroke:#333333!important;stroke-width:1;}#svg #dependencyStart,#svg .dependency{fill:#333333!important;stroke:#333333!important;stroke-width:1;}#svg #extensionStart,#svg .extension{fill:transparent!important;stroke:#333333!important;stroke-width:1;}#svg #extensionEnd,#svg .extension{fill:transparent!important;stroke:#333333!important;stroke-width:1;}#svg #aggregationStart,#svg .aggregation{fill:transparent!important;stroke:#333333!important;stroke-width:1;}#svg #aggregationEnd,#svg .aggregation{fill:transparent!important;stroke:#333333!important;stroke-width:1;}#svg #lollipopStart,#svg .lollipop{fill:#ECECFF!important;stroke:#333333!important;stroke-width:1;}#svg #lollipopEnd,#svg .lollipop{fill:#ECECFF!important;stroke:#333333!important;stroke-width:1;}#svg .edgeTerminals{font-size:11px;line-height:initial;}#svg .classTitleText{text-anchor:middle;font-size:18px;fill:#333;}#svg .today{display:none;}#svg .label foreignObject{overflow:visible;}#svg :root{--mermaid-font-family:"trebuchet ms",verdana,arial,sans-serif;}</style><g><defs><marker orient="auto" markerHeight="240" markerWidth="190" refY="7" refX="18" class="marker aggregation classDiagram" id="svg_classDiagram-aggregationStart"><path d="M 18,7 L9,13 L1,7 L9,1 Z"></path></marker></defs><defs><marker orient="auto" markerHeight="28" markerWidth="20" refY="7" refX="1" class="marker aggregation classDiagram" id="svg_classDiagram-aggregationEnd"><path d="M 18,7 L9,13 L1,7 L9,1 Z"></path></marker></defs><defs><marker orient="auto" markerHeight="240" markerWidth="190" refY="7" refX="18" class="marker extension classDiagram" id="svg_classDiagram-extensionStart"><path d="M 1,7 L18,13 V 1 Z"></path></marker></defs><defs><marker orient="auto" markerHeight="28" markerWidth="20" refY="7" refX="1" class="marker extension classDiagram" id="svg_classDiagram-extensionEnd"><path d="M 1,1 V 13 L18,7 Z"></path></marker></defs><defs><marker orient="auto" markerHeight="240" markerWidth="190" refY="7" refX="18" class="marker composition classDiagram" id="svg_classDiagram-compositionStart"><path d="M 18,7 L9,13 L1,7 L9,1 Z"></path></marker></defs><defs><marker orient="auto" markerHeight="28" markerWidth="20" refY="7" refX="1" class="marker composition classDiagram" id="svg_classDiagram-compositionEnd"><path d="M 18,7 L9,13 L1,7 L9,1 Z"></path></marker></defs><defs><marker orient="auto" markerHeight="240" markerWidth="190" refY="7" refX="6" class="marker dependency classDiagram" id="svg_classDiagram-dependencyStart"><path d="M 5,7 L9,13 L1,7 L9,1 Z"></path></marker></defs><defs><marker orient="auto" markerHeight="28" markerWidth="20" refY="7" refX="13" class="marker dependency classDiagram" id="svg_classDiagram-dependencyEnd"><path d="M 18,7 L9,13 L14,7 L9,1 Z"></path></marker></defs><defs><marker orient="auto" markerHeight="240" markerWidth="190" refY="7" refX="13" class="marker lollipop classDiagram" id="svg_classDiagram-lollipopStart"><circle r="6" cy="7" cx="7" fill="transparent" stroke="black"></circle></marker></defs><defs><marker orient="auto" markerHeight="240" markerWidth="190" refY="7" refX="1" class="marker lollipop classDiagram" id="svg_classDiagram-lollipopEnd"><circle r="6" cy="7" cx="7" fill="transparent" stroke="black"></circle></marker></defs><g class="root"><g class="clusters"></g><g class="edgePaths"><path marker-start="url(#svg_classDiagram-extensionStart)" style="fill:none" class="edge-pattern-solid relation" id="id_BaseNode_MixedNode_1" d="M486,84L486,85.167C486,86.333,486,88.667,486,94C486,99.333,486,107.667,486,111.833L486,116"></path><path marker-start="url(#svg_classDiagram-extensionStart)" style="fill:none" class="edge-pattern-solid relation" id="id_MixedNode_SourceNode_2" d="M411.149,154.705L354.208,162.087C297.266,169.47,183.383,184.235,126.442,195.784C69.5,207.333,69.5,215.667,69.5,219.833L69.5,224"></path><path marker-start="url(#svg_classDiagram-extensionStart)" style="fill:none" class="edge-pattern-solid relation" id="id_MixedNode_SinkNode_3" d="M414.316,182.31L408.971,185.092C403.627,187.874,392.939,193.437,387.594,200.385C382.25,207.333,382.25,215.667,382.25,219.833L382.25,224"></path><path marker-start="url(#svg_classDiagram-extensionStart)" style="fill:none" class="edge-pattern-solid relation" id="id_MixedNode_AdapterNode_4" d="M557.684,182.31L563.029,185.092C568.373,187.874,579.061,193.437,584.406,200.385C589.75,207.333,589.75,215.667,589.75,219.833L589.75,224"></path><path marker-start="url(#svg_classDiagram-extensionStart)" style="fill:none" class="edge-pattern-solid relation" id="id_MixedNode_NexusNode_5" d="M560.714,158.482L598.137,165.235C635.559,171.988,710.405,185.494,747.827,196.414C785.25,207.333,785.25,215.667,785.25,219.833L785.25,224"></path><path marker-start="url(#svg_classDiagram-extensionStart)" style="fill:none" class="edge-pattern-solid relation" id="id_SourceNode_TLClientNode_6" d="M69.5,300L69.5,302.917C69.5,305.833,69.5,311.667,76.219,320.5C82.939,329.333,96.377,341.167,103.097,347.083L109.816,353"></path><path marker-start="url(#svg_classDiagram-extensionStart)" style="fill:none" class="edge-pattern-solid relation" id="id_SinkNode_TLManagerNode_7" d="M382.25,300L382.25,302.917C382.25,305.833,382.25,311.667,382.25,320.5C382.25,329.333,382.25,341.167,382.25,347.083L382.25,353"></path><path marker-start="url(#svg_classDiagram-extensionStart)" style="fill:none" class="edge-pattern-solid relation" id="id_AdapterNode_TLAdapterNode_8" d="M589.75,300L589.75,302.917C589.75,305.833,589.75,311.667,589.75,320.5C589.75,329.333,589.75,341.167,589.75,347.083L589.75,353"></path><path marker-start="url(#svg_classDiagram-extensionStart)" style="fill:none" class="edge-pattern-solid relation" id="id_NexusNode_TLNexusNode_9" d="M785.25,300L785.25,302.917C785.25,305.833,785.25,311.667,785.25,320.5C785.25,329.333,785.25,341.167,785.25,347.083L785.25,353"></path><path marker-end="url(#svg_classDiagram-aggregationEnd)" style="fill:none" class="edge-pattern-solid relation" id="id_TLImp_TLClientNode_10" d="M216,282L216,287.917C216,293.833,216,305.667,211.532,315.517C207.064,325.368,198.129,333.236,193.661,337.17L189.193,341.105"></path></g><g class="edgeLabels"><g class="edgeLabel"><g transform="translate(0, 0)" class="label"><foreignObject height="0" width="0"><div style="display: inline-block; white-space: nowrap;" xmlns="http://www.w3.org/1999/xhtml"><span class="edgeLabel"></span></div></foreignObject></g></g><g class="edgeLabel"><g transform="translate(0, 0)" class="label"><foreignObject height="0" width="0"><div style="display: inline-block; white-space: nowrap;" xmlns="http://www.w3.org/1999/xhtml"><span class="edgeLabel"></span></div></foreignObject></g></g><g class="edgeLabel"><g transform="translate(0, 0)" class="label"><foreignObject height="0" width="0"><div style="display: inline-block; white-space: nowrap;" xmlns="http://www.w3.org/1999/xhtml"><span class="edgeLabel"></span></div></foreignObject></g></g><g class="edgeLabel"><g transform="translate(0, 0)" class="label"><foreignObject height="0" width="0"><div style="display: inline-block; white-space: nowrap;" xmlns="http://www.w3.org/1999/xhtml"><span class="edgeLabel"></span></div></foreignObject></g></g><g class="edgeLabel"><g transform="translate(0, 0)" class="label"><foreignObject height="0" width="0"><div style="display: inline-block; white-space: nowrap;" xmlns="http://www.w3.org/1999/xhtml"><span class="edgeLabel"></span></div></foreignObject></g></g><g transform="translate(69.5, 317.5)" class="edgeLabel"><g transform="translate(-41, -10.5)" class="label"><foreignObject height="21" width="82"><div style="display: inline-block; white-space: nowrap;" xmlns="http://www.w3.org/1999/xhtml"><span class="edgeLabel"><span class="edgeLabel">绑定TLImp</span></span></div></foreignObject></g></g><g transform="translate(382.25, 317.5)" class="edgeLabel"><g transform="translate(-41, -10.5)" class="label"><foreignObject height="21" width="82"><div style="display: inline-block; white-space: nowrap;" xmlns="http://www.w3.org/1999/xhtml"><span class="edgeLabel"><span class="edgeLabel">绑定TLImp</span></span></div></foreignObject></g></g><g transform="translate(589.75, 317.5)" class="edgeLabel"><g transform="translate(-41, -10.5)" class="label"><foreignObject height="21" width="82"><div style="display: inline-block; white-space: nowrap;" xmlns="http://www.w3.org/1999/xhtml"><span class="edgeLabel"><span class="edgeLabel">绑定TLImp</span></span></div></foreignObject></g></g><g transform="translate(785.25, 317.5)" class="edgeLabel"><g transform="translate(-41, -10.5)" class="label"><foreignObject height="21" width="82"><div style="display: inline-block; white-space: nowrap;" xmlns="http://www.w3.org/1999/xhtml"><span class="edgeLabel"><span class="edgeLabel">绑定TLImp</span></span></div></foreignObject></g></g><g transform="translate(216, 317.5)" class="edgeLabel"><g transform="translate(-62, -10.5)" class="label"><foreignObject height="21" width="124"><div style="display: inline-block; white-space: nowrap;" xmlns="http://www.w3.org/1999/xhtml"><span class="edgeLabel"><span class="edgeLabel">定义D/U/E/B泛型</span></span></div></foreignObject></g></g></g><g class="nodes"><g transform="translate(486, 37)" data-id="BaseNode" data-node="true" id="classId-BaseNode-0" class="node default"><rect height="58" width="105" y="-29" x="-52.5" class="outer title-state" style=""></rect><line y2="2" y1="2" x2="52.5" x1="-52.5" class="divider"></line><line y2="18" y1="18" x2="52.5" x1="-52.5" class="divider"></line><g class="label"><foreignObject height="0" width="0"><div style="display: inline-block; white-space: nowrap;" xmlns="http://www.w3.org/1999/xhtml"><span class="nodeLabel"></span></div></foreignObject><foreignObject transform="translate( -45, -21.5)" height="19" width="90" class="classTitle"><div style="display: inline-block; white-space: nowrap;" xmlns="http://www.w3.org/1999/xhtml"><span class="nodeLabel">BaseNode</span></div></foreignObject></g></g><g transform="translate(486, 145)" data-id="MixedNode" data-node="true" id="classId-MixedNode-1" class="node default"><rect height="58" width="114" y="-29" x="-57" class="outer title-state" style=""></rect><line y2="2" y1="2" x2="57" x1="-57" class="divider"></line><line y2="18" y1="18" x2="57" x1="-57" class="divider"></line><g class="label"><foreignObject height="0" width="0"><div style="display: inline-block; white-space: nowrap;" xmlns="http://www.w3.org/1999/xhtml"><span class="nodeLabel"></span></div></foreignObject><foreignObject transform="translate( -49.5, -21.5)" height="19" width="99" class="classTitle"><div style="display: inline-block; white-space: nowrap;" xmlns="http://www.w3.org/1999/xhtml"><span class="nodeLabel">MixedNode</span></div></foreignObject></g></g><g transform="translate(69.5, 253)" data-id="SourceNode" data-node="true" id="classId-SourceNode-2" class="node default"><rect height="58" width="123" y="-29" x="-61.5" class="outer title-state" style=""></rect><line y2="2" y1="2" x2="61.5" x1="-61.5" class="divider"></line><line y2="18" y1="18" x2="61.5" x1="-61.5" class="divider"></line><g class="label"><foreignObject height="0" width="0"><div style="display: inline-block; white-space: nowrap;" xmlns="http://www.w3.org/1999/xhtml"><span class="nodeLabel"></span></div></foreignObject><foreignObject transform="translate( -54, -21.5)" height="19" width="108" class="classTitle"><div style="display: inline-block; white-space: nowrap;" xmlns="http://www.w3.org/1999/xhtml"><span class="nodeLabel">SourceNode</span></div></foreignObject></g></g><g transform="translate(382.25, 253)" data-id="SinkNode" data-node="true" id="classId-SinkNode-3" class="node default"><rect height="58" width="100" y="-29" x="-50" class="outer title-state" style=""></rect><line y2="2" y1="2" x2="50" x1="-50" class="divider"></line><line y2="18" y1="18" x2="50" x1="-50" class="divider"></line><g class="label"><foreignObject height="0" width="0"><div style="display: inline-block; white-space: nowrap;" xmlns="http://www.w3.org/1999/xhtml"><span class="nodeLabel"></span></div></foreignObject><foreignObject transform="translate( -42.5, -21.5)" height="19" width="85" class="classTitle"><div style="display: inline-block; white-space: nowrap;" xmlns="http://www.w3.org/1999/xhtml"><span class="nodeLabel">SinkNode</span></div></foreignObject></g></g><g transform="translate(589.75, 253)" data-id="AdapterNode" data-node="true" id="classId-AdapterNode-4" class="node default"><rect height="58" width="133" y="-29" x="-66.5" class="outer title-state" style=""></rect><line y2="2" y1="2" x2="66.5" x1="-66.5" class="divider"></line><line y2="18" y1="18" x2="66.5" x1="-66.5" class="divider"></line><g class="label"><foreignObject height="0" width="0"><div style="display: inline-block; white-space: nowrap;" xmlns="http://www.w3.org/1999/xhtml"><span class="nodeLabel"></span></div></foreignObject><foreignObject transform="translate( -59, -21.5)" height="19" width="118" class="classTitle"><div style="display: inline-block; white-space: nowrap;" xmlns="http://www.w3.org/1999/xhtml"><span class="nodeLabel">AdapterNode</span></div></foreignObject></g></g><g transform="translate(785.25, 253)" data-id="NexusNode" data-node="true" id="classId-NexusNode-5" class="node default"><rect height="58" width="116" y="-29" x="-58" class="outer title-state" style=""></rect><line y2="2" y1="2" x2="58" x1="-58" class="divider"></line><line y2="18" y1="18" x2="58" x1="-58" class="divider"></line><g class="label"><foreignObject height="0" width="0"><div style="display: inline-block; white-space: nowrap;" xmlns="http://www.w3.org/1999/xhtml"><span class="nodeLabel"></span></div></foreignObject><foreignObject transform="translate( -50.5, -21.5)" height="19" width="101" class="classTitle"><div style="display: inline-block; white-space: nowrap;" xmlns="http://www.w3.org/1999/xhtml"><span class="nodeLabel">NexusNode</span></div></foreignObject></g></g><g transform="translate(216, 253)" data-id="TLImp" data-node="true" id="classId-TLImp-6" class="node default"><rect height="58" width="70" y="-29" x="-35" class="outer title-state" style=""></rect><line y2="2" y1="2" x2="35" x1="-35" class="divider"></line><line y2="18" y1="18" x2="35" x1="-35" class="divider"></line><g class="label"><foreignObject height="0" width="0"><div style="display: inline-block; white-space: nowrap;" xmlns="http://www.w3.org/1999/xhtml"><span class="nodeLabel"></span></div></foreignObject><foreignObject transform="translate( -27.5, -21.5)" height="19" width="55" class="classTitle"><div style="display: inline-block; white-space: nowrap;" xmlns="http://www.w3.org/1999/xhtml"><span class="nodeLabel">TLImp</span></div></foreignObject></g></g><g transform="translate(142.75, 382)" data-id="TLClientNode" data-node="true" id="classId-TLClientNode-7" class="node default"><rect height="58" width="134" y="-29" x="-67" class="outer title-state" style=""></rect><line y2="2" y1="2" x2="67" x1="-67" class="divider"></line><line y2="18" y1="18" x2="67" x1="-67" class="divider"></line><g class="label"><foreignObject height="0" width="0"><div style="display: inline-block; white-space: nowrap;" xmlns="http://www.w3.org/1999/xhtml"><span class="nodeLabel"></span></div></foreignObject><foreignObject transform="translate( -59.5, -21.5)" height="19" width="119" class="classTitle"><div style="display: inline-block; white-space: nowrap;" xmlns="http://www.w3.org/1999/xhtml"><span class="nodeLabel">TLClientNode</span></div></foreignObject></g></g><g transform="translate(382.25, 382)" data-id="TLManagerNode" data-node="true" id="classId-TLManagerNode-8" class="node default"><rect height="58" width="161" y="-29" x="-80.5" class="outer title-state" style=""></rect><line y2="2" y1="2" x2="80.5" x1="-80.5" class="divider"></line><line y2="18" y1="18" x2="80.5" x1="-80.5" class="divider"></line><g class="label"><foreignObject height="0" width="0"><div style="display: inline-block; white-space: nowrap;" xmlns="http://www.w3.org/1999/xhtml"><span class="nodeLabel"></span></div></foreignObject><foreignObject transform="translate( -73, -21.5)" height="19" width="146" class="classTitle"><div style="display: inline-block; white-space: nowrap;" xmlns="http://www.w3.org/1999/xhtml"><span class="nodeLabel">TLManagerNode</span></div></foreignObject></g></g><g transform="translate(589.75, 382)" data-id="TLAdapterNode" data-node="true" id="classId-TLAdapterNode-9" class="node default"><rect height="58" width="154" y="-29" x="-77" class="outer title-state" style=""></rect><line y2="2" y1="2" x2="77" x1="-77" class="divider"></line><line y2="18" y1="18" x2="77" x1="-77" class="divider"></line><g class="label"><foreignObject height="0" width="0"><div style="display: inline-block; white-space: nowrap;" xmlns="http://www.w3.org/1999/xhtml"><span class="nodeLabel"></span></div></foreignObject><foreignObject transform="translate( -69.5, -21.5)" height="19" width="139" class="classTitle"><div style="display: inline-block; white-space: nowrap;" xmlns="http://www.w3.org/1999/xhtml"><span class="nodeLabel">TLAdapterNode</span></div></foreignObject></g></g><g transform="translate(785.25, 382)" data-id="TLNexusNode" data-node="true" id="classId-TLNexusNode-10" class="node default"><rect height="58" width="137" y="-29" x="-68.5" class="outer title-state" style=""></rect><line y2="2" y1="2" x2="68.5" x1="-68.5" class="divider"></line><line y2="18" y1="18" x2="68.5" x1="-68.5" class="divider"></line><g class="label"><foreignObject height="0" width="0"><div style="display: inline-block; white-space: nowrap;" xmlns="http://www.w3.org/1999/xhtml"><span class="nodeLabel"></span></div></foreignObject><foreignObject transform="translate( -61, -21.5)" height="19" width="122" class="classTitle"><div style="display: inline-block; white-space: nowrap;" xmlns="http://www.w3.org/1999/xhtml"><span class="nodeLabel">TLNexusNode</span></div></foreignObject></g></g></g></g></g></svg>